<?xml version="1.0" encoding="UTF-8" standalone="no"?>
<svg
   version="1.1"
   viewBox="0 0 256 256"
   width="256"
   height="256"
   id="svg4"
   sodipodi:docname="apps.svg"
   inkscape:version="1.1 (c4e8f9ed74, 2021-05-24)"
   xmlns:inkscape="http://www.inkscape.org/namespaces/inkscape"
   xmlns:sodipodi="http://sodipodi.sourceforge.net/DTD/sodipodi-0.dtd"
   xmlns="http://www.w3.org/2000/svg"
   xmlns:svg="http://www.w3.org/2000/svg">
  <defs
     id="defs8" />
  <sodipodi:namedview
     id="namedview6"
     pagecolor="#ffffff"
     bordercolor="#666666"
     borderopacity="1.0"
     inkscape:pageshadow="2"
     inkscape:pageopacity="0.0"
     inkscape:pagecheckerboard="0"
     showgrid="false"
     inkscape:zoom="2.9414062"
     inkscape:cx="127.83002"
     inkscape:cy="132.24967"
     inkscape:window-width="1904"
     inkscape:window-height="1152"
     inkscape:window-x="6"
     inkscape:window-y="38"
     inkscape:window-maximized="1"
     inkscape:current-layer="svg4" />
  <path
     d="m31.297 22.16a9.1377 9.1377 0 0 0 -9.1368 9.1368v38.986a9.1377 9.1377 0 0 0 9.1368 9.1368h38.986a9.1377 9.1377 0 0 0 9.1368 -9.1368v-38.986a9.1377 9.1377 0 0 0 -9.137 -9.137h-38.986zm75.533 0a9.1377 9.1377 0 0 0 -9.1368 9.1368v38.986a9.1377 9.1377 0 0 0 9.1368 9.1368h42.34a9.1377 9.1377 0 0 0 9.1368 -9.1368v-38.986a9.1377 9.1377 0 0 0 -9.14 -9.137h-42.34zm78.887 0a9.1377 9.1377 0 0 0 -9.1368 9.1368v38.986a9.1377 9.1377 0 0 0 9.1368 9.1368h38.986a9.1377 9.1377 0 0 0 9.13 -9.137v-38.986a9.1377 9.1377 0 0 0 -9.14 -9.137h-38.986zm-154.42 75.533a9.1377 9.1377 0 0 0 -9.1368 9.1368v42.34a9.1377 9.1377 0 0 0 9.1368 9.1368h38.986a9.1377 9.1377 0 0 0 9.1368 -9.1368v-42.34a9.1377 9.1377 0 0 0 -9.1368 -9.1368h-38.986zm75.533 0a9.1377 9.1377 0 0 0 -9.1368 9.1368v42.34a9.1377 9.1377 0 0 0 9.1368 9.1368h42.34a9.1377 9.1377 0 0 0 9.1368 -9.1368v-42.34a9.1377 9.1377 0 0 0 -9.1368 -9.1368h-42.34zm78.887 0a9.1377 9.1377 0 0 0 -9.1368 9.1368v42.34a9.1377 9.1377 0 0 0 9.1368 9.1368h38.986a9.1377 9.1377 0 0 0 9.1368 -9.1368v-42.34a9.1377 9.1377 0 0 0 -9.1368 -9.1368h-38.986zm-154.42 78.887a9.1377 9.1377 0 0 0 -9.1368 9.1368v38.986a9.1377 9.1377 0 0 0 9.1368 9.1368h38.986a9.1377 9.1377 0 0 0 9.1368 -9.1368v-38.986a9.1377 9.1377 0 0 0 -9.1368 -9.1368h-38.986zm75.533 0a9.1377 9.1377 0 0 0 -9.1368 9.1368v38.986a9.1377 9.1377 0 0 0 9.1368 9.1368h42.34a9.1377 9.1377 0 0 0 9.1368 -9.1368v-38.986a9.1377 9.1377 0 0 0 -9.1368 -9.1368h-42.34zm78.887 0a9.1377 9.1377 0 0 0 -9.1368 9.1368v38.986a9.1377 9.1377 0 0 0 9.1368 9.1368h38.986a9.1377 9.1377 0 0 0 9.1368 -9.1368v-38.986a9.1377 9.1377 0 0 0 -9.1368 -9.1368h-38.986z"
     fill-rule="evenodd"
     fill="#72a7cf"
     id="path2"
     style="fill:#e6e6e6" />
</svg>
