<?xml version="1.0" encoding="UTF-8" standalone="no"?>
<svg
   viewBox="0 0 48 48"
   version="1.1"
   id="svg886"
   sodipodi:docname="shutdown.svg"
   inkscape:version="1.1 (c4e8f9ed74, 2021-05-24)"
   xmlns:inkscape="http://www.inkscape.org/namespaces/inkscape"
   xmlns:sodipodi="http://sodipodi.sourceforge.net/DTD/sodipodi-0.dtd"
   xmlns="http://www.w3.org/2000/svg"
   xmlns:svg="http://www.w3.org/2000/svg">
  <sodipodi:namedview
     id="namedview888"
     pagecolor="#ffffff"
     bordercolor="#666666"
     borderopacity="1.0"
     inkscape:pageshadow="2"
     inkscape:pageopacity="0.0"
     inkscape:pagecheckerboard="0"
     showgrid="false"
     inkscape:zoom="18.0625"
     inkscape:cx="23.972318"
     inkscape:cy="23.889273"
     inkscape:window-width="1904"
     inkscape:window-height="1152"
     inkscape:window-x="6"
     inkscape:window-y="38"
     inkscape:window-maximized="1"
     inkscape:current-layer="svg886" />
  <defs
     id="defs878">
    <linearGradient
       gradientUnits="userSpaceOnUse"
       y2="517.8"
       x2="0"
       y1="545.8"
       id="linearGradient871">
      <stop
         stop-color="#3889e9"
         id="stop867" />
      <stop
         offset="1"
         stop-color="#5ea5fb"
         id="stop869" />
    </linearGradient>
    <linearGradient
       gradientUnits="userSpaceOnUse"
       y2="519.36"
       x2="406.75"
       y1="545.72"
       x1="406.26"
       id="0"
       gradientTransform="matrix(1.71282,0,0,1.70962,-662.13,-885.24)">
      <stop
         stop-color="#566069"
         id="stop873" />
      <stop
         offset="1"
         stop-color="#6c7884"
         id="stop875" />
    </linearGradient>
  </defs>
  <ellipse
     cx="24.01543"
     cy="24.065825"
     fill="#5ea5fb"
     fill-opacity="0"
     id="circle880"
     rx="23.979481"
     ry="23.934681"
     style="stroke-width:1.71122" />
  <path
     d="M 47.956237,23.932497 A 23.979473,23.934673 0 0 1 23.976774,47.867177 23.979473,23.934673 0 0 1 -0.00272327,23.932497 23.979473,23.934673 0 0 1 23.976774,-0.00218324 23.979473,23.934673 0 0 1 47.956237,23.932497 M 36.949655,18.678834 c -1.012276,-2.02077 -2.437342,-3.716713 -4.273485,-5.084409 -0.527549,-0.401761 -1.125323,-0.559046 -1.793323,-0.470146 -0.666287,0.08719 -1.195548,0.401761 -1.584359,0.942001 -0.402512,0.526563 -0.556666,1.119801 -0.462461,1.779714 0.0942,0.659913 0.405938,1.189896 0.933487,1.591656 1.231518,0.928324 2.185558,2.065221 2.858697,3.408983 0.673138,1.343761 1.008851,2.774713 1.008851,4.294565 0,1.30615 -0.255211,2.552463 -0.763918,3.738939 -0.508708,1.186476 -1.198974,2.212248 -2.065661,3.079026 -0.8684,0.866777 -1.896092,1.554044 -3.084789,2.061801 -1.188697,0.507758 -2.437343,0.762491 -3.745937,0.762491 -1.308595,0 -2.557241,-0.254733 -3.745938,-0.762491 -1.188697,-0.507757 -2.216389,-1.196734 -3.084788,-2.061801 -0.8684,-0.866778 -1.556954,-1.89255 -2.065661,-3.079026 -0.508708,-1.186476 -0.763918,-2.432789 -0.763918,-3.738939 0,-1.518142 0.335713,-2.950804 1.008851,-4.294565 0.673138,-1.343762 1.625466,-2.478949 2.858696,-3.408983 0.527549,-0.40176 0.839282,-0.931743 0.933487,-1.591656 0.0942,-0.658204 -0.05995,-1.253151 -0.462461,-1.779714 -0.390523,-0.54024 -0.914646,-0.853101 -1.575794,-0.942001 -0.661149,-0.08719 -1.260636,0.06839 -1.801887,0.470146 -1.836143,1.367696 -3.261209,3.063639 -4.273486,5.084409 -1.0122766,2.020771 -1.5192713,4.174893 -1.5192713,6.458945 0,1.959224 0.3836717,3.829549 1.1510153,5.612682 0.767343,1.783134 1.798461,3.320082 3.095065,4.614265 1.294892,1.292472 2.83643,2.323373 4.622902,3.087573 1.786471,0.76591 3.660296,1.148865 5.623188,1.148865 1.962891,0 3.836717,-0.382955 5.623188,-1.148865 1.786471,-0.765909 3.328009,-1.795101 4.622901,-3.087573 1.294892,-1.292473 2.32601,-2.831131 3.095066,-4.614265 0.767343,-1.783133 1.151015,-3.653458 1.151015,-5.612682 0,-2.285762 -0.505282,-4.438174 -1.517559,-6.458945 M 23.97847,25.139488 c 0.654297,0 1.22124,-0.237637 1.697404,-0.71633 0.477877,-0.476984 0.717672,-1.042868 0.717672,-1.694234 V 10.676103 c 0,-0.653075 -0.239795,-1.2172492 -0.717672,-1.6942331 -0.477877,-0.476984 -1.043107,-0.7163308 -1.697404,-0.7163308 -0.654298,0 -1.219528,0.2393468 -1.697405,0.7163308 -0.477877,0.4769839 -0.717672,1.0428681 -0.717672,1.6942331 v 12.052821 c 0,0.653075 0.239795,1.21725 0.717672,1.694234 0.477877,0.476984 1.04482,0.71633 1.697405,0.71633"
     fill="url(#0)"
     fill-rule="evenodd"
     id="path882"
     style="fill:#4e5260;stroke-width:1.71122;fill-opacity:1" />
  <path
     style="fill:#800000;stroke-width:0.0553633"
     d="m 12.775087,10.703818 c 0.03806,-0.01536 0.100346,-0.01536 0.138408,0 0.03806,0.01536 0.0069,0.02792 -0.0692,0.02792 -0.07612,0 -0.107267,-0.01257 -0.0692,-0.02792 z"
     id="path1974" />
  <path
     style="fill:#ffffff;fill-opacity:1;stroke-width:0.0553633"
     d="m 22.726644,39.521999 c -3.222086,-0.276771 -6.465335,-1.767342 -8.813635,-4.050676 -2.484858,-2.416112 -4.0009042,-5.576827 -4.3417135,-9.051776 -0.079159,-0.807122 -0.032404,-2.593561 0.088683,-3.388405 0.5454435,-3.580428 2.4373655,-6.871695 5.2251915,-9.089965 0.606031,-0.482217 1.008741,-0.691503 1.489103,-0.773876 1.341052,-0.229965 2.636045,0.810307 2.715411,2.1813 0.05188,0.89623 -0.257949,1.520614 -1.087168,2.19091 -2.120397,1.714015 -3.37428,3.978518 -3.660348,6.610556 -0.284011,2.613121 0.589781,5.334245 2.37356,7.391628 1.280643,1.477074 3.297259,2.646964 5.273826,3.05948 4.209123,0.878458 8.542252,-1.146611 10.524919,-4.918774 1.101131,-2.09498 1.411178,-4.343694 0.916359,-6.646175 -0.418114,-1.94556 -1.57995,-3.896682 -3.061974,-5.142111 -0.792445,-0.665936 -1.089466,-0.972253 -1.246119,-1.285118 -0.475219,-0.949103 -0.332399,-1.943999 0.393006,-2.737707 0.673917,-0.737373 1.819874,-0.951175 2.707799,-0.505196 0.690592,0.346865 2.173632,1.688332 3.003687,2.716951 1.77956,2.205264 2.858641,4.826687 3.142596,7.634342 0.08396,0.83015 0.03789,2.789631 -0.08344,3.549049 -0.306873,1.920792 -0.995047,3.762329 -2.049686,5.484912 -2.789265,4.555818 -8.130728,7.232725 -13.510061,6.770651 z"
     id="path5608" />
  <path
     style="fill:#ffffff;fill-opacity:1;stroke-width:0.0553633"
     d="m 23.584775,25.072125 c -0.712456,-0.116606 -1.406992,-0.656269 -1.757643,-1.365712 l -0.207755,-0.420331 -0.01658,-6.425048 c -0.01855,-7.1867678 -0.03793,-6.801442 0.374082,-7.4388978 0.26177,-0.4050094 0.598161,-0.6975721 1.054266,-0.916905 0.332701,-0.1599904 0.403736,-0.1730513 0.941176,-0.1730513 0.539208,0 0.608418,0.012839 0.95549,0.177243 0.519717,0.2461851 0.93669,0.6563517 1.191613,1.1721614 l 0.205839,0.4164927 v 6.618781 6.618782 l -0.17644,0.360462 c -0.187572,0.383205 -0.629633,0.86689 -0.993938,1.087526 -0.4411,0.267147 -1.034436,0.376168 -1.570107,0.288497 z"
     id="path5647" />
</svg>
